
<svg xmlns="http://www.w3.org/2000/svg" viewBox="0 0 55 60" width="55" height="60">

		<path fill="#fff" d="M55.48 15.35L55.48 24.73C55.48 26.46 54.07 27.86 52.35 27.86L51.51 27.86L51.51 53.97C51.51 57.29 48.81 60 45.48 60L9.99 60C6.67 60 3.96 57.29 3.96 53.97L3.96 27.86L3.13 27.86C1.4 27.86 0 26.46 0 24.73L0 15.35C0 13.62 1.4 12.22 3.13 12.22L10.1 12.22C8.49 9.89 8.2 6.76 9.64 4.11C11.67 0.35 16.38 -1.05 20.14 0.98C23.75 2.94 26.31 7.09 27.74 9.99C29.17 7.09 31.73 2.94 35.34 0.98C37.16 0 39.26 -0.22 41.24 0.37C43.22 0.96 44.86 2.29 45.84 4.11C46.83 5.93 47.04 8.02 46.45 10.01C46.21 10.81 45.85 11.55 45.39 12.22L52.35 12.22C54.07 12.22 55.48 13.62 55.48 15.35ZM49.11 27.86L28.94 27.86L28.94 41.53L49.11 41.53L49.11 27.86ZM49.11 53.97L49.11 43.93L28.94 43.93L28.94 57.6L45.48 57.6C47.49 57.6 49.11 55.97 49.11 53.97ZM9.99 57.6L26.54 57.6L26.54 43.93L6.36 43.93L6.36 53.97C6.36 55.97 7.99 57.6 9.99 57.6ZM26.54 27.86L6.36 27.86L6.36 41.53L26.54 41.53L26.54 27.86ZM13.49 12.22L26.13 12.22C25 9.69 22.52 5 19 3.09C16.4 1.69 13.15 2.66 11.75 5.25C10.43 7.69 11.23 10.7 13.49 12.22ZM29.35 12.22L41.99 12.22C43.02 11.52 43.79 10.53 44.15 9.32C44.56 7.95 44.41 6.51 43.73 5.25C43.05 3.99 41.92 3.08 40.55 2.67C39.18 2.26 37.74 2.41 36.48 3.09C32.96 5 30.48 9.69 29.35 12.22ZM53.08 15.35C53.08 14.95 52.74 14.62 52.35 14.62L3.13 14.62C2.73 14.62 2.4 14.95 2.4 15.35L2.4 24.73C2.4 25.13 2.73 25.46 3.13 25.46L5.16 25.46C5.16 25.46 5.16 25.46 5.16 25.46C5.16 25.46 5.16 25.46 5.17 25.46L27.74 25.46C27.74 25.46 27.74 25.46 27.74 25.46C27.74 25.46 27.74 25.46 27.74 25.46L50.31 25.46C50.31 25.46 50.31 25.46 50.31 25.46C50.31 25.46 50.32 25.46 50.32 25.46L52.35 25.46C52.75 25.46 53.08 25.13 53.08 24.73L53.08 15.35Z" />

</svg>